<?xml version="1.0" encoding="UTF-8"?>
<mxfile host="app.diagrams.net" modified="2025-07-08T00:00:00.000Z" agent="AI" version="15.8.8" editor="www.diagrams.net" type="device">
  <diagram id="MeetingTemplate" name="Template ID: 0013 - Meeting Template">
    <![CDATA[
    <mxGraphModel dx="844" dy="529" grid="1" gridSize="10" guides="1" tooltips="1" connect="1" arrows="1" fold="1" page="1" pageScale="1" pageWidth="1600" pageHeight="1200" background="#ffffff" math="0">
      <root>
        <mxCell id="0"/>
        <mxCell id="1" parent="0"/>
        <mxCell id="2" value="Meeting Title: {{TITLE}}" style="rounded=1;whiteSpace=wrap;html=1;fillColor=#E1F5FE;strokeColor=#0277BD;" vertex="1" parent="1">
          <mxGeometry x="20" y="20" width="400" height="50" as="geometry"/>
        </mxCell>
        <mxCell id="3" value="Date: {{DATE}}" style="rounded=1;whiteSpace=wrap;html=1;fillColor=#FFF3E0;strokeColor=#F57C00;" vertex="1" parent="1">
          <mxGeometry x="450" y="20" width="200" height="50" as="geometry"/>
        </mxCell>
        <mxCell id="4" value="Participants:\n- {{NAME1}}\n- {{NAME2}}\n- {{NAME3}}" style="rounded=1;whiteSpace=wrap;html=1;fillColor=#E8F5E9;strokeColor=#2E7D32;" vertex="1" parent="1">
          <mxGeometry x="20" y="90" width="300" height="150" as="geometry"/>
        </mxCell>
        <mxCell id="5" value="Agenda:\n1. {{AGENDA1}}\n2. {{AGENDA2}}\n3. {{AGENDA3}}" style="rounded=1;whiteSpace=wrap;html=1;fillColor=#FFFDE7;strokeColor=#FBC02D;" vertex="1" parent="1">
          <mxGeometry x="340" y="90" width="300" height="150" as="geometry"/>
        </mxCell>
        <mxCell id="6" value="Discussion Points:\n- {{POINT1}}\n- {{POINT2}}\n- {{POINT3}}" style="rounded=1;whiteSpace=wrap;html=1;fillColor=#F3E5F5;strokeColor=#7B1FA2;" vertex="1" parent="1">
          <mxGeometry x="660" y="90" width="300" height="150" as="geometry"/>
        </mxCell>
        <mxCell id="7" value="Key Decisions:\n- {{DECISION1}}\n- {{DECISION2}}\n- {{DECISION3}}" style="rounded=1;whiteSpace=wrap;html=1;fillColor=#E0F7FA;strokeColor=#006064;" vertex="1" parent="1">
          <mxGeometry x="20" y="260" width="450" height="150" as="geometry"/>
        </mxCell>
        <mxCell id="8" value="Action Items:\n1. {{ACTION1}}\n2. {{ACTION2}}\n3. {{ACTION3}}" style="rounded=1;whiteSpace=wrap;html=1;fillColor=#FCE4EC;strokeColor=#AD1457;" vertex="1" parent="1">
          <mxGeometry x="490" y="260" width="470" height="150" as="geometry"/>
        </mxCell>
      </root>
    </mxGraphModel>
    ]]>
  </diagram>
</mxfile> 